<svg xmlns="http://www.w3.org/2000/svg" viewBox="0 0 512 320" width="512" height="320" role="img" aria-label="GopherMind — Go Pher It">
  <title>GopherMind — Go Pher It</title>
  <rect x="0" y="0" width="512" height="320" fill="#FAF7F0"/>
  <g id="mark" transform="translate(192 24)">
    <path d="M35.2 28.0 35.6 29.8 35.6 31.6 35.0 33.3 33.9 34.7 32.8 36.0 31.7 37.4 30.4 38.6 28.9 39.3 27.2 39.8 25.7 40.4 24.1 41.2 22.4 41.8 20.7 41.9 18.9 41.4 17.3 40.8 15.7 40.1 14.1 39.3 12.9 38.0 12.1 36.5 11.3 35.0 10.3 33.6 9.2 32.2 8.5 30.6 8.3 28.9 8.4 27.1 8.5 25.4 8.7 23.6 9.5 22.0 10.8 20.7 12.1 19.6 13.3 18.4 14.4 17.2 15.8 16.1 17.4 15.4 19.0 14.9 20.7 14.4 22.4 14.0 24.3 14.0 25.9 14.8 27.4 15.9 28.8 16.8 30.2 17.7 31.6 18.7 32.6 20.1 33.5 21.5 34.4 23.0 35.4 24.5 36.1 26.2Z" fill="#C98A45" stroke="#1C1917" stroke-width="2.4"/>
    <path d="M119.6 28.0 119.6 29.8 119.2 31.5 118.3 33.0 117.2 34.3 116.4 35.7 115.6 37.3 114.5 38.6 113.0 39.5 111.5 40.4 110.0 41.3 108.3 42.0 106.4 41.9 104.7 41.3 103.1 40.9 101.4 40.5 99.8 39.8 98.6 38.7 97.3 37.6 95.9 36.6 94.4 35.6 93.4 34.0 93.0 32.3 92.6 30.6 92.1 28.9 92.2 27.1 92.9 25.4 93.7 23.9 94.3 22.4 94.9 20.8 95.8 19.3 97.1 18.2 98.4 17.0 99.6 15.7 101.1 14.7 102.9 14.4 104.7 14.5 106.4 14.6 108.2 14.6 109.8 15.2 111.3 16.1 112.6 17.0 114.2 17.7 115.8 18.5 117.0 19.8 117.9 21.3 118.7 22.9 119.6 24.4 119.9 26.2Z" fill="#C98A45" stroke="#1C1917" stroke-width="2.4"/>
    <path d="M116.3 68.0 115.5 69.7 114.9 71.4 115.0 73.0 115.3 74.8 115.5 76.5 115.2 78.2 114.6 79.9 114.1 81.5 113.7 83.2 112.9 84.7 111.7 86.1 110.6 87.4 109.9 88.9 109.7 90.8 109.4 92.6 108.5 94.0 107.2 95.3 105.8 96.4 104.7 97.7 103.6 99.0 102.3 100.0 100.8 101.0 99.7 102.2 98.7 103.7 97.8 105.3 96.5 106.5 94.8 107.1 93.0 107.5 91.5 108.2 90.1 109.1 88.6 110.0 87.1 110.7 85.5 111.4 84.1 112.3 82.7 113.5 81.0 114.2 79.3 114.2 77.4 113.9 75.7 113.9 74.1 114.5 72.5 115.2 70.8 115.6 69.1 115.8 67.4 116.0 65.7 116.4 64.0 116.6 62.3 116.2 60.6 115.4 59.0 114.8 57.3 114.9 55.5 115.3 53.7 115.4 52.1 115.1 50.4 114.6 48.8 114.1 47.1 113.7 45.5 112.9 44.1 111.8 42.7 110.8 41.1 110.4 39.3 110.3 37.5 110.0 35.9 109.2 34.7 107.9 33.4 106.7 32.0 105.7 30.7 104.7 29.5 103.4 28.4 102.2 27.1 101.1 25.4 100.3 23.8 99.5 22.6 98.2 21.9 96.6 21.3 94.9 20.5 93.4 19.4 92.1 18.4 90.7 17.7 89.2 16.8 87.7 15.8 86.3 14.6 84.9 13.9 83.3 13.9 81.5 14.1 79.7 14.0 78.0 13.3 76.4 12.6 74.8 12.2 73.1 12.1 71.4 11.9 69.7 11.5 68.0 11.5 66.3 12.0 64.6 12.9 63.0 13.5 61.4 13.4 59.6 13.1 57.8 13.2 56.1 13.7 54.4 14.5 52.9 15.1 51.3 15.7 49.7 16.6 48.2 17.9 47.0 19.0 45.6 19.6 44.1 20.0 42.2 20.5 40.5 21.6 39.2 23.1 38.2 24.4 37.1 25.6 35.9 26.9 34.7 28.2 33.7 29.7 32.8 30.9 31.6 31.8 30.0 32.9 28.6 34.4 27.7 36.2 27.2 38.0 27.0 39.5 26.3 40.9 25.3 42.5 24.5 44.1 24.0 45.6 23.3 47.1 22.4 48.6 21.4 50.3 21.0 52.1 21.2 53.9 21.6 55.6 21.5 57.2 20.9 58.9 20.3 60.6 19.9 62.3 19.9 64.0 19.8 65.7 19.6 67.4 19.6 69.1 20.2 70.7 21.1 72.4 21.6 74.1 21.5 75.9 21.1 77.7 21.1 79.3 21.7 80.9 22.4 82.5 23.0 84.1 23.6 85.6 24.4 86.9 25.5 88.3 26.5 90.0 27.0 91.9 27.1 93.6 27.7 95.0 28.7 96.1 30.1 97.2 31.4 98.6 32.5 99.9 33.5 101.0 34.9 102.1 36.2 103.4 37.2 105.0 38.1 106.5 39.1 107.5 40.5 107.9 42.3 108.4 44.0 109.3 45.5 110.3 46.9 111.2 48.3 111.9 49.8 112.6 51.4 113.6 52.8 114.6 54.3 115.0 56.0 114.8 57.8 114.5 59.6 114.6 61.3 115.3 62.9 115.9 64.6 116.1 66.3Z" fill="#C98A45" stroke="#1C1917" stroke-width="2.6"/>
    <path d="M56.5 60.0 56.8 61.7 56.9 63.4 56.6 65.2 55.8 66.7 54.8 68.1 53.8 69.5 52.7 70.8 51.5 72.0 50.0 72.8 48.5 73.6 47.1 74.5 45.7 75.5 44.1 76.2 42.3 76.5 40.6 76.2 38.9 75.6 37.3 75.2 35.7 74.8 34.1 74.3 32.6 73.5 31.2 72.5 29.8 71.5 28.4 70.4 27.3 69.1 26.5 67.5 26.2 65.8 26.1 64.1 25.8 62.5 25.3 60.8 24.9 59.1 25.0 57.4 25.4 55.7 26.0 54.1 26.6 52.5 27.5 51.0 28.6 49.8 30.1 48.8 31.5 47.9 32.7 46.8 34.0 45.6 35.4 44.6 37.1 44.0 38.8 43.9 40.6 44.0 42.3 44.2 43.9 44.4 45.6 44.8 47.1 45.5 48.6 46.3 50.1 47.1 51.7 47.8 53.2 48.8 54.2 50.2 54.9 51.8 55.3 53.5 55.8 55.1 56.4 56.7 56.8 58.3Z" fill="#FAF7F0" stroke="#1C1917" stroke-width="2.2"/>
    <path d="M102.6 60.0 102.9 61.7 103.0 63.5 102.6 65.2 101.8 66.7 100.9 68.2 100.0 69.7 98.9 71.0 97.5 72.0 95.9 72.7 94.5 73.5 93.1 74.4 91.6 75.3 90.0 75.7 88.3 75.9 86.6 76.0 84.8 76.2 83.1 76.1 81.4 75.4 80.0 74.4 78.6 73.4 77.2 72.4 75.9 71.4 74.9 70.0 74.1 68.6 73.2 67.2 72.1 65.8 71.2 64.3 70.8 62.6 70.8 60.9 70.9 59.1 71.0 57.4 71.3 55.7 72.1 54.2 73.2 52.8 74.2 51.5 75.0 50.0 75.9 48.6 77.1 47.4 78.6 46.5 80.0 45.6 81.5 44.6 83.1 43.9 84.8 43.7 86.6 44.0 88.3 44.3 89.9 44.5 91.6 44.8 93.1 45.5 94.5 46.4 95.9 47.3 97.5 48.0 99.0 48.9 100.2 50.2 101.0 51.8 101.7 53.3 102.4 54.9 102.9 56.6 102.9 58.3Z" fill="#FAF7F0" stroke="#1C1917" stroke-width="2.2"/>
    <path d="M50.6 58.0 50.4 59.7 49.7 61.2 48.7 62.5 47.4 63.7 45.8 64.5 44.0 64.7 42.3 64.2 40.9 63.1 39.8 61.9 38.9 60.5 38.5 58.8 38.6 57.2 39.0 55.6 39.7 54.0 40.7 52.6 42.3 51.7 44.1 51.5 45.8 51.8 47.4 52.4 48.8 53.4 49.7 54.8 50.2 56.4Z" fill="#1C1917" stroke="#1C1917" stroke-width="0.8"/>
    <path d="M96.9 58.0 96.7 59.8 95.9 61.3 94.6 62.5 93.2 63.4 91.7 64.1 90.1 64.4 88.3 64.2 86.8 63.3 85.6 62.1 84.7 60.6 84.2 58.9 84.4 57.1 85.1 55.6 85.9 54.2 86.9 52.9 88.3 51.8 90.1 51.4 91.8 51.6 93.4 52.3 94.8 53.3 95.9 54.7 96.3 56.3Z" fill="#1C1917" stroke="#1C1917" stroke-width="0.8"/>
    <path d="M75.1 84.0 75.0 85.6 74.5 87.3 73.4 88.7 72.0 89.7 70.3 90.3 68.7 90.9 67.0 91.4 65.3 91.5 63.6 91.3 61.9 90.8 60.3 90.5 58.6 90.3 56.9 89.9 55.4 89.0 54.2 87.8 53.1 86.5 52.2 84.9 52.1 83.1 53.0 81.4 54.3 80.3 55.7 79.3 57.1 78.4 58.6 77.6 60.2 77.2 61.9 77.0 63.6 76.8 65.3 76.5 67.1 76.4 68.8 76.8 70.3 77.6 71.8 78.6 73.2 79.6 74.4 80.8 75.1 82.4Z" fill="#1C1917" stroke="#1C1917" stroke-width="1.2"/>
    <path d="M62.8 97.0 63.7 98.1 65.0 97.5 65.2 95.8 65.4 94.1 65.6 92.4 65.6 90.6 65.3 88.9 64.8 87.4 63.6 87.2 62.9 88.3 62.6 90.0 62.5 91.8 62.6 93.5 62.6 95.3Z" fill="#1C1917" stroke="#1C1917" stroke-width="0.8"/>
    <path d="M71.8 111.8 71.3 113.3 70.2 114.4 68.6 115.0 66.9 115.4 65.1 115.6 63.4 115.3 61.6 114.8 59.9 114.6 58.3 114.5 56.8 113.8 56.0 112.3 56.0 110.5 55.9 108.8 55.7 107.0 55.5 105.3 55.8 103.6 56.3 101.8 56.6 100.1 56.5 98.5 57.0 96.9 58.5 95.8 60.3 95.7 62.0 95.8 63.8 95.8 65.5 95.8 67.2 95.9 68.9 96.3 70.3 97.0 71.3 98.1 72.0 99.6 72.4 101.3 72.5 103.1 72.2 104.8 72.0 106.6 71.9 108.3 71.9 110.1Z" fill="#FAF7F0" stroke="#1C1917" stroke-width="2.4"/>
    <path d="M62.9 113.6 64.4 114.6 65.0 112.9 64.8 111.2 64.8 109.5 64.8 107.8 64.7 106.1 64.7 104.3 64.9 102.6 65.2 100.9 65.1 99.2 64.9 97.5 63.7 96.7 63.1 98.1 63.2 99.8 63.4 101.5 63.3 103.2 63.0 104.9 62.9 106.7 63.0 108.4 63.1 110.1 63.0 111.8Z" fill="#1C1917" stroke="#1C1917" stroke-width="0.6"/>
    <path d="M7.8 41.1 6.0 40.6 4.4 41.6 3.7 43.0 3.4 44.4 3.8 46.0 5.2 47.1 6.6 48.0 7.9 49.2 9.3 50.3 10.9 50.9 12.7 51.4 14.2 52.2 15.5 53.4 17.0 53.9 18.6 53.4 19.9 52.2 20.5 50.4 19.5 48.7 17.8 48.0 16.1 47.4 14.8 46.3 13.4 45.3 11.9 44.4 10.5 43.4 9.3 42.1Z" fill="#5AA6BC" stroke="#1C1917" stroke-width="1.6"/>
    <path d="M123.9 46.8 124.7 45.2 124.5 43.6 124.0 42.3 122.8 41.2 121.1 41.3 119.7 42.2 118.1 42.8 116.4 43.4 115.0 44.4 113.7 45.6 112.3 46.6 110.8 47.4 109.5 48.6 108.8 50.0 108.5 51.4 108.8 52.9 110.2 54.0 111.9 53.9 113.5 53.2 115.1 52.5 116.6 51.6 117.8 50.2 119.1 49.1 120.6 48.3 122.1 47.3Z" fill="#5AA6BC" stroke="#1C1917" stroke-width="1.6"/>
    <path d="M67.3 56.5 67.5 54.4 67.1 52.7 66.8 50.9 66.3 49.9 64.5 49.9 62.8 50.2 61.2 50.0 60.8 51.6 60.6 53.3 60.8 55.2 61.7 56.2 63.5 56.3 65.2 56.2Z" fill="#5AA6BC" stroke="#1C1917" stroke-width="1.6"/>
    <path d="M65.1 73.0 64.8 71.3 64.7 69.6 65.1 67.9 65.6 66.1 65.7 64.4 65.5 62.7 65.5 61.0 65.8 59.3 65.8 57.6 65.3 55.8 64.8 54.1 64.8 52.4 65.0 50.7 65.1 49.0 65.0 47.3 64.9 45.6 65.0 43.9 64.9 42.0 64.1 40.4 62.8 39.2 61.5 38.0 60.2 36.8 58.7 35.9 57.0 35.6 55.3 35.6 53.7 35.3 52.0 34.9 50.3 34.6 48.6 34.7 46.9 34.7 45.1 34.4 43.4 34.1 41.7 34.1 40.0 34.6 38.3 34.9 36.6 34.9 34.8 34.8 33.1 35.0 31.4 35.3 29.7 35.2 28.0 34.7 26.3 34.3 24.5 34.4 22.8 34.7 21.1 35.1 19.4 35.5 17.9 36.5 16.9 38.0 16.0 39.5 15.0 40.7 13.9 42.1 13.3 43.7 13.2 45.3 12.9 47.0 12.4 48.7 12.1 50.4 12.2 52.1 12.5 53.9 12.7 55.6 12.5 57.3 12.6 59.0 13.1 60.7 13.4 62.4 13.2 64.2 12.8 65.9 12.6 67.6 12.7 69.3 12.6 71.0 12.3 72.7 12.1 74.5 12.7 76.2 13.7 77.7 14.7 79.1 15.6 80.6 16.7 81.8 18.1 82.7 19.6 83.4 21.0 84.3 22.5 85.2 24.3 85.7 26.0 85.6 27.7 85.5 29.4 85.6 31.1 85.8 32.9 85.5 34.6 85.0 36.3 84.7 38.0 84.9 39.7 85.2 41.4 85.1 43.2 85.0 44.9 85.2 46.6 85.7 48.3 86.0 50.0 85.7 51.7 85.4 53.4 85.3 55.2 85.2 56.8 84.6 58.2 83.6 59.5 82.6 61.0 81.9 62.5 80.9 63.6 79.6 64.3 78.0 65.0 76.4 65.7 74.8ZM58.4 72.9 58.3 74.6 57.5 76.0 56.3 77.1 55.0 77.9 53.5 78.6 51.8 79.1 50.0 79.4 48.3 79.2 46.6 78.8 44.9 78.6 43.2 78.7 41.5 78.7 39.8 78.5 38.1 78.2 36.3 78.1 34.6 78.5 32.9 79.0 31.2 79.2 29.5 79.1 27.8 78.9 26.1 78.8 24.3 78.8 22.7 78.3 21.4 77.1 20.7 75.7 20.1 74.3 19.6 72.7 19.1 71.0 18.9 69.3 19.0 67.6 19.1 65.9 19.0 64.2 18.9 62.5 19.0 60.8 19.4 59.1 19.9 57.3 20.0 55.6 19.6 53.9 19.3 52.2 19.1 50.5 19.2 48.8 19.2 47.1 19.2 45.3 19.8 43.5 21.1 42.2 22.9 41.7 24.6 41.8 26.3 41.9 28.0 41.6 29.7 41.4 31.4 41.4 33.1 41.4 34.8 41.3 36.5 40.9 38.2 40.6 39.9 40.8 41.7 41.2 43.4 41.6 45.1 41.7 46.8 41.6 48.5 41.5 50.2 41.6 51.9 41.6 53.6 41.5 55.4 41.5 57.2 42.2 58.3 43.7 58.7 45.5 58.5 47.3 58.5 49.0 58.6 50.7 58.5 52.4 58.3 54.1 58.2 55.8 58.4 57.5 59.0 59.2 59.3 60.9 59.2 62.7 58.9 64.4 58.7 66.1 58.7 67.8 58.7 69.5 58.6 71.2Z" fill="#5AA6BC" stroke="#1C1917" stroke-width="1.7"/>
    <path d="M115.0 73.0 114.7 71.3 114.8 69.6 115.4 67.9 115.8 66.1 115.7 64.4 115.4 62.7 115.4 61.0 115.4 59.3 115.2 57.6 114.8 55.8 114.7 54.1 115.1 52.4 115.7 50.7 115.8 49.0 115.5 47.3 115.4 45.5 115.1 43.8 114.4 42.2 113.2 40.9 112.1 39.7 111.1 38.4 110.2 36.9 108.8 35.7 107.1 35.2 105.4 34.8 103.7 34.4 102.0 34.4 100.3 34.8 98.6 35.3 96.9 35.3 95.1 34.8 93.4 34.4 91.7 34.5 90.0 34.5 88.3 34.4 86.6 34.2 84.8 34.6 83.1 35.2 81.4 35.4 79.7 35.0 78.0 34.6 76.3 34.5 74.6 34.6 72.8 34.6 71.0 34.8 69.4 35.6 68.2 37.0 67.2 38.3 65.9 39.4 64.6 40.5 63.7 42.0 63.2 43.6 62.7 45.3 62.2 47.0 62.1 48.7 62.6 50.4 63.2 52.1 63.2 53.9 62.9 55.6 62.7 57.3 62.8 59.0 62.7 60.7 62.3 62.4 62.0 64.2 62.3 65.9 62.9 67.6 63.2 69.3 63.0 71.0 62.8 72.7 63.0 74.4 63.3 76.1 63.5 77.8 63.9 79.6 65.0 81.0 66.5 82.0 68.1 82.7 69.5 83.6 71.0 84.4 72.6 84.8 74.3 84.9 76.0 85.3 77.7 85.8 79.4 86.0 81.1 85.6 82.9 85.1 84.6 85.0 86.3 85.1 88.0 85.1 89.7 84.9 91.4 85.0 93.2 85.6 94.9 86.0 96.6 85.8 98.3 85.3 100.0 85.1 101.7 85.2 103.4 85.1 105.1 84.7 106.7 84.2 108.4 84.1 110.2 83.6 111.6 82.6 112.6 81.0 113.4 79.5 114.2 78.0 114.7 76.4 114.8 74.7ZM108.0 72.9 108.0 74.5 107.8 76.2 106.8 77.7 105.2 78.5 103.5 78.9 101.8 79.1 100.0 79.0 98.3 78.5 96.6 78.1 94.9 78.2 93.2 78.6 91.5 78.9 89.8 78.8 88.1 78.9 86.3 79.2 84.6 79.2 82.9 78.7 81.2 78.2 79.5 78.2 77.8 78.5 76.1 78.6 74.4 78.5 72.7 78.3 70.9 77.7 69.6 76.3 69.4 74.5 69.7 72.7 69.7 71.0 69.5 69.3 69.5 67.6 69.6 65.9 69.3 64.2 68.8 62.5 68.6 60.8 69.1 59.1 69.5 57.3 69.5 55.6 69.4 53.9 69.7 52.2 69.8 50.5 69.5 48.8 68.9 47.0 69.0 45.2 70.0 43.7 71.4 42.6 72.9 41.7 74.5 41.3 76.3 41.7 78.0 42.0 79.7 41.6 81.4 41.0 83.1 40.8 84.8 41.1 86.5 41.1 88.2 41.0 89.9 41.2 91.7 41.7 93.4 42.0 95.1 41.7 96.8 41.2 98.5 41.0 100.2 41.1 101.9 41.1 103.7 40.9 105.4 41.5 106.5 42.9 107.3 44.3 108.1 45.7 108.7 47.2 108.7 49.0 108.7 50.7 109.0 52.4 109.3 54.1 109.1 55.8 108.5 57.5 108.2 59.2 108.3 60.9 108.6 62.7 108.5 64.4 108.5 66.1 108.9 67.8 109.4 69.5 109.2 71.2Z" fill="#5AA6BC" stroke="#1C1917" stroke-width="1.7"/>
  </g>
  <g id="wordmark" fill="#1C1917" stroke="#1C1917" stroke-width="2" stroke-linejoin="round">
    <path d="M108.1 217.0 106.7 218.4 105.5 219.8 104.6 221.5 103.7 223.2 102.3 224.6 100.6 225.6 98.9 226.5 97.2 227.3 95.3 227.6 93.4 227.5 91.5 227.6 89.7 227.9 87.7 228.1 85.8 227.6 84.1 226.6 82.5 225.6 80.9 224.5 79.6 223.1 78.6 221.5 77.3 220.2 75.8 218.9 74.5 217.4 73.8 215.6 73.6 213.6 73.2 211.8 72.8 209.9 72.7 208.0 72.8 206.2 72.7 204.3 72.3 202.3 72.4 200.4 73.2 198.6 74.3 196.9 75.1 195.3 75.9 193.5 77.0 192.0 78.2 190.6 79.3 189.0 80.4 187.4 81.9 186.1 83.8 185.6 85.8 185.3 87.6 184.7 89.3 184.2 91.2 184.0 93.1 184.1 95.0 184.2 97.0 184.3 98.8 185.1 100.2 186.5 101.5 187.9 103.0 189.0 104.6 190.1 105.9 191.5 106.9 193.1 108.0 194.7 108.6 196.7 107.6 198.5 105.8 199.3 104.1 199.2 102.5 198.9 101.1 197.7 100.0 196.2 98.8 194.7 97.4 193.5 95.7 192.6 94.1 191.7 92.3 190.8 90.3 190.6 88.5 191.5 86.9 192.6 85.4 193.7 83.9 194.8 82.8 196.3 81.8 197.9 80.8 199.5 79.8 201.2 79.4 203.1 79.7 205.1 80.1 207.0 80.3 208.8 80.4 210.7 80.9 212.5 81.7 214.3 82.5 216.0 83.5 217.7 85.1 218.9 87.0 219.5 88.8 219.9 90.5 220.4 92.4 220.8 94.3 220.5 96.0 219.7 97.7 218.8 99.3 217.6 100.3 216.0 100.8 214.1 101.1 212.4 101.4 210.6 101.3 209.0 99.3 208.9 97.4 209.0 95.5 209.0 93.6 208.9 91.6 209.2 90.5 208.1 90.4 206.1 90.9 204.2 91.7 203.1 93.4 203.2 95.3 202.9 97.2 202.9 99.1 202.9 101.0 202.6 102.7 202.1 104.6 201.5 106.4 202.5 107.2 204.0 107.7 205.6 108.0 207.5 108.1 209.4 108.1 211.3 108.3 213.2 108.5 215.1Z" fill="#1C1917" stroke="#1C1917" stroke-width="2.0"/>
    <path d="M148.0 212.2 147.5 214.0 147.1 215.9 146.6 217.7 145.6 219.3 144.6 220.9 143.7 222.7 142.5 224.3 140.8 225.3 138.9 225.9 137.1 226.5 135.3 227.2 133.4 227.3 131.5 227.3 129.6 227.6 127.6 227.9 125.7 227.5 124.0 226.4 122.3 225.4 120.7 224.4 119.3 223.1 118.2 221.5 117.0 220.1 115.5 218.8 114.5 217.1 114.2 215.1 114.2 213.1 114.2 211.2 114.6 209.3 115.4 207.6 116.2 205.9 116.7 204.0 117.5 202.2 118.9 200.8 120.6 199.8 122.2 198.7 124.0 197.9 125.9 197.6 127.8 197.5 129.6 196.9 131.5 196.2 133.5 196.3 135.4 196.9 137.2 197.5 139.0 198.2 140.5 199.4 141.8 200.9 143.2 202.1 144.9 203.2 146.2 204.6 146.9 206.5 147.5 208.3 148.0 210.2ZM141.0 212.2 140.9 210.1 139.8 208.3 138.3 207.0 136.7 206.0 135.2 204.9 133.4 204.2 131.5 204.0 129.6 204.1 127.6 204.2 125.7 204.7 123.9 205.8 122.9 207.6 122.3 209.4 121.9 211.2 121.7 213.1 122.2 214.9 123.2 216.5 124.4 218.0 125.8 219.4 127.5 220.5 129.5 220.9 131.5 220.5 133.4 220.0 135.2 219.4 136.9 218.6 138.3 217.3 139.3 215.7 140.2 214.0Z" fill="#1C1917" stroke="#1C1917" stroke-width="2.0"/>
    <path d="M152.1 195.9 152.4 194.2 153.8 192.8 155.8 192.6 157.6 193.4 158.9 194.9 159.2 196.8 158.8 198.8 158.7 201.1 160.8 199.9 162.1 198.5 163.7 197.3 165.6 196.7 167.5 196.6 169.5 196.6 171.4 196.6 173.2 197.0 175.0 197.6 176.8 198.2 178.7 198.6 180.6 199.2 182.2 200.4 183.2 202.2 184.0 203.9 185.0 205.5 186.0 207.1 186.6 208.9 186.9 210.8 187.1 212.7 187.2 214.7 186.8 216.6 185.7 218.3 184.3 219.7 183.3 221.2 182.3 222.8 181.1 224.4 179.5 225.5 177.7 226.3 176.0 227.0 174.1 227.5 172.2 227.6 170.3 227.3 168.4 227.2 166.5 227.3 164.5 227.4 162.6 226.7 161.1 225.4 159.6 224.1 158.7 224.7 158.7 226.6 158.6 228.5 158.6 230.5 158.9 232.4 159.4 234.3 159.4 236.2 158.9 238.1 158.3 239.9 157.4 241.3 156.0 242.4 154.2 242.5 152.5 241.5 151.6 239.8 151.3 237.9 151.2 236.0 151.6 234.1 152.1 232.2 152.2 230.3 151.7 228.3 151.2 226.4 151.2 224.5 151.4 222.6 151.6 220.7 151.6 218.8 151.7 216.9 152.0 215.0 152.0 213.1 151.6 211.1 151.1 209.2 151.0 207.3 151.4 205.4 151.9 203.5 151.9 201.6 151.8 199.7 151.7 197.8ZM179.3 211.4 178.7 209.7 178.2 207.9 177.1 206.2 175.5 205.1 173.7 204.2 171.9 203.5 169.9 203.5 168.0 204.3 166.3 205.2 164.6 205.8 162.8 206.7 161.5 208.2 160.8 210.0 160.4 212.0 160.6 214.0 161.6 215.7 163.1 217.0 164.4 218.2 165.8 219.6 167.5 220.6 169.5 220.8 171.5 220.5 173.4 220.1 175.2 219.3 176.6 218.0 177.7 216.5 178.9 215.1 180.0 213.3Z" fill="#1C1917" stroke="#1C1917" stroke-width="2.0"/>
    <path d="M228.4 210.4 228.4 212.3 228.3 214.2 228.6 216.1 228.9 218.0 228.9 219.9 228.5 221.8 228.1 223.7 228.1 225.6 228.2 227.5 227.9 229.3 226.7 230.6 225.2 231.3 223.3 231.6 221.4 230.6 220.7 228.6 221.0 226.6 221.1 224.7 221.0 222.8 221.2 220.9 221.6 219.0 221.7 217.1 221.4 215.2 220.9 213.3 220.8 211.4 220.9 209.5 220.4 207.7 219.4 206.1 218.3 204.7 217.2 203.1 215.8 201.8 214.0 201.0 212.0 200.8 210.1 200.8 208.2 200.8 206.3 201.3 204.6 202.2 203.2 203.4 201.7 204.4 200.1 205.5 198.9 207.0 198.4 208.9 198.3 210.8 198.1 212.7 198.0 214.6 198.3 216.5 198.8 218.4 199.0 220.3 198.8 222.2 198.5 224.1 198.6 226.0 198.6 227.9 197.9 229.7 196.4 230.6 194.9 231.1 193.1 231.1 191.5 230.0 191.0 228.1 191.1 226.2 190.9 224.3 190.7 222.4 190.9 220.5 191.4 218.5 191.7 216.6 191.6 214.7 191.3 212.8 191.3 210.9 191.4 209.0 191.2 207.1 190.8 205.2 190.6 203.3 190.9 201.4 191.3 199.5 191.4 197.6 191.3 195.7 191.4 193.8 191.7 191.9 191.6 190.0 191.2 188.1 190.8 186.2 190.8 184.3 191.4 182.4 192.7 180.9 194.5 180.2 196.4 180.6 197.6 182.1 197.8 183.8 198.0 185.6 198.4 187.5 198.6 189.4 198.6 191.3 198.6 193.2 198.8 195.1 198.7 196.6 199.9 195.9 201.8 195.5 203.6 195.0 205.4 194.3 207.2 193.9 209.1 193.8 211.0 193.8 212.9 193.7 214.9 193.7 216.8 194.2 218.4 195.3 219.9 196.5 221.5 197.5 223.0 198.7 224.1 200.2 225.1 201.8 226.2 203.3 227.5 204.8 228.3 206.5 228.6 208.5Z" fill="#1C1917" stroke="#1C1917" stroke-width="2.0"/>
    <path d="M239.5 215.4 240.2 216.9 241.5 218.2 243.1 219.3 244.7 220.5 246.7 221.0 248.6 220.6 250.5 220.1 252.4 220.2 254.2 221.0 255.5 222.7 255.3 224.8 253.9 226.2 252.3 227.0 250.5 227.5 248.6 227.4 246.7 227.2 244.8 227.5 242.8 227.4 241.1 226.6 239.4 225.7 237.6 224.9 236.2 223.5 235.2 221.8 234.2 220.2 233.0 218.7 232.3 217.0 231.9 215.2 231.2 213.4 230.7 211.4 231.1 209.5 231.9 207.7 232.5 205.9 233.5 204.2 235.0 202.9 236.4 201.7 237.5 200.2 239.0 199.0 240.7 198.2 242.4 197.3 244.2 196.4 246.2 196.2 248.1 196.6 250.0 196.8 251.9 197.0 253.6 197.8 255.3 198.7 257.1 199.2 259.0 199.9 260.4 201.2 261.6 202.7 263.0 204.1 263.9 205.9 264.0 207.8 264.2 209.7 264.7 211.6 264.6 213.4 264.1 215.2 263.9 217.1 263.7 219.1 262.6 220.8 260.9 221.9 259.0 222.3 257.1 221.7 256.2 219.9 256.2 218.2 256.6 216.5 256.4 215.2 254.5 215.1 252.6 215.3 250.6 215.8 248.7 215.8 246.8 215.3 244.9 215.2 243.0 215.3 241.1 215.0ZM256.6 208.9 255.4 207.8 254.4 206.2 253.0 204.7 251.1 203.9 249.1 203.7 247.1 203.6 245.1 203.8 243.3 204.8 241.9 206.3 240.7 207.7 239.4 208.9 241.1 209.1 243.1 209.0 245.1 209.1 247.1 209.5 249.0 209.7 251.0 209.2 253.0 208.8 255.0 208.8Z" fill="#1C1917" stroke="#1C1917" stroke-width="2.0"/>
    <path d="M268.3 195.8 269.5 194.2 271.1 193.4 272.7 193.0 274.4 193.5 275.5 195.1 276.6 195.6 278.0 194.2 279.9 193.6 281.9 193.7 283.8 193.8 285.7 193.8 287.5 194.4 289.1 195.2 291.0 195.7 292.9 196.4 294.3 197.8 295.3 199.5 296.4 201.0 297.2 202.7 297.5 204.7 297.7 206.5 298.5 208.3 298.9 210.2 297.8 211.9 296.1 212.9 294.1 213.2 292.4 212.0 291.9 210.1 291.8 208.2 291.0 206.4 290.0 204.7 289.0 203.2 287.3 202.2 285.5 201.7 283.8 201.2 281.9 200.9 280.1 201.6 278.5 202.4 276.6 202.0 275.5 202.9 276.0 204.9 276.5 206.8 276.2 208.7 275.9 210.6 276.0 212.5 275.9 214.4 275.4 216.3 275.4 218.2 275.9 220.1 276.2 222.1 276.1 224.0 276.1 225.9 276.3 227.8 275.6 229.6 274.0 230.6 272.5 231.1 270.7 231.2 269.3 230.0 268.7 228.2 268.3 226.3 268.0 224.4 268.4 222.5 269.0 220.6 268.9 218.7 268.8 216.8 269.0 214.9 268.9 213.0 268.3 211.1 268.1 209.2 268.4 207.3 268.7 205.4 268.6 203.5 268.8 201.6 269.2 199.7 269.0 197.8Z" fill="#1C1917" stroke="#1C1917" stroke-width="2.0"/>
    <path d="M298.1 183.0 299.0 181.3 300.7 180.2 302.7 180.5 304.0 181.8 304.7 183.3 305.8 184.9 306.9 186.5 307.8 188.2 308.7 189.9 309.8 191.4 311.0 193.0 311.8 194.7 312.3 196.6 312.9 198.4 313.8 200.1 314.8 201.7 315.5 203.5 316.2 205.3 317.3 206.8 318.6 208.3 319.8 209.9 320.2 211.4 321.0 210.1 321.8 208.3 322.6 206.6 323.7 205.1 325.0 203.6 326.1 202.0 326.7 200.1 327.3 198.3 328.2 196.6 329.1 195.0 329.8 193.2 330.3 191.3 331.3 189.7 332.5 188.2 333.7 186.6 334.6 184.9 335.3 183.2 336.3 181.7 337.8 181.0 339.5 180.8 341.4 181.2 342.7 182.9 342.7 184.9 342.5 186.8 342.5 188.7 342.6 190.6 342.3 192.5 341.9 194.4 341.7 196.3 342.1 198.2 342.4 200.1 342.4 202.0 342.3 203.9 342.6 205.8 342.9 207.8 342.8 209.7 342.4 211.6 342.0 213.5 342.1 215.4 342.2 217.3 342.1 219.2 341.9 221.1 342.1 223.0 342.6 224.9 342.9 226.8 342.6 228.8 341.5 230.5 339.9 231.6 338.0 231.8 336.3 230.7 335.7 229.0 335.7 227.3 335.4 225.4 335.0 223.5 335.0 221.6 335.1 219.7 334.9 217.8 334.5 215.9 334.6 214.0 335.0 212.1 335.4 210.2 335.4 208.2 335.2 206.3 335.3 204.4 335.5 202.5 335.3 200.6 334.9 198.9 334.8 199.9 333.8 201.5 332.7 203.1 331.8 204.8 331.0 206.5 329.9 208.1 328.7 209.6 327.7 211.2 327.1 213.0 326.5 214.9 325.6 216.6 324.7 218.2 324.0 220.0 323.2 221.9 321.3 223.0 319.3 222.5 318.0 221.3 317.0 219.8 316.0 218.2 315.2 216.4 314.4 214.7 313.4 213.1 312.1 211.6 310.9 210.1 310.2 208.3 309.6 206.5 308.7 204.8 307.7 203.2 307.0 201.4 306.5 199.5 304.9 198.3 305.1 200.6 305.5 202.5 305.5 204.4 305.4 206.3 305.6 208.2 305.9 210.1 305.8 212.0 305.4 213.9 305.0 215.8 305.0 217.7 305.2 219.6 305.2 221.5 305.0 223.4 305.2 225.3 305.7 227.3 305.7 229.3 304.4 231.0 302.5 231.6 300.6 231.5 298.9 230.5 298.3 228.7 298.6 226.8 298.7 224.9 298.4 223.0 298.0 221.1 297.9 219.2 298.0 217.3 297.9 215.4 297.6 213.5 297.7 211.6 298.1 209.7 298.5 207.8 298.5 205.9 298.3 204.0 298.3 202.1 298.5 200.2 298.3 198.3 297.8 196.4 297.5 194.5 297.7 192.6 298.0 190.7 298.1 188.8 298.0 186.9 298.2 185.0Z" fill="#1C1917" stroke="#1C1917" stroke-width="2.0"/>
    <path d="M349.7 195.9 350.2 194.0 351.8 192.8 353.8 192.5 355.8 193.1 356.8 194.9 356.5 196.9 356.4 198.8 356.7 200.7 356.8 202.6 356.7 204.5 357.0 206.5 357.5 208.4 357.2 210.3 356.7 212.2 356.7 214.1 356.7 216.0 356.5 217.9 356.4 219.9 356.9 221.8 357.4 223.7 357.2 225.6 356.9 227.5 356.7 229.5 355.4 230.9 353.6 231.1 352.0 230.8 350.4 230.1 349.4 228.4 349.5 226.5 349.4 224.6 349.1 222.6 349.4 220.7 350.0 218.8 350.1 216.9 349.8 215.0 349.7 213.1 349.8 211.2 349.4 209.2 349.0 207.3 349.2 205.4 349.7 203.5 349.8 201.6 349.7 199.7 350.0 197.8ZM358.0 187.1 357.3 189.1 355.5 190.1 353.7 190.5 351.8 190.8 349.9 190.0 348.9 188.2 348.5 186.2 349.1 184.1 350.8 182.8 352.7 182.7 354.5 182.8 356.4 183.4 357.6 185.1Z" fill="#1C1917" stroke="#1C1917" stroke-width="2.0"/>
    <path d="M401.3 210.4 401.2 212.3 400.7 214.2 400.3 216.1 400.5 218.0 400.8 219.9 400.9 221.8 400.9 223.7 401.1 225.6 401.4 227.6 400.9 229.5 399.3 230.7 397.6 231.1 395.9 231.1 394.4 230.1 393.8 228.4 393.6 226.6 393.2 224.7 393.0 222.8 393.5 220.9 393.9 219.0 393.9 217.0 393.7 215.1 393.9 213.2 393.9 211.3 393.4 209.5 392.6 207.8 391.8 206.2 391.1 204.4 389.8 203.0 388.1 202.1 386.3 201.3 384.5 200.6 382.5 200.5 380.7 201.2 378.9 201.9 377.1 202.2 375.3 202.9 373.8 204.1 372.5 205.5 371.3 207.0 370.5 208.9 370.8 210.8 371.3 212.8 371.4 214.7 371.1 216.6 371.0 218.5 371.1 220.4 370.9 222.3 370.4 224.2 370.4 226.1 370.9 228.0 370.8 230.0 369.3 231.4 367.3 231.8 365.4 231.4 364.0 230.0 363.9 228.0 364.3 226.1 364.1 224.2 363.6 222.3 363.5 220.4 363.6 218.5 363.4 216.6 363.2 214.7 363.5 212.8 364.0 210.9 364.2 209.0 363.9 207.1 363.6 205.2 363.7 203.3 363.6 201.4 363.3 199.5 363.2 197.6 363.7 195.7 364.9 194.3 366.2 193.3 367.9 192.9 369.6 193.6 370.6 195.2 371.0 196.8 372.2 195.6 374.0 194.8 376.0 194.7 377.9 194.4 379.7 194.0 381.6 193.7 383.5 193.9 385.3 194.0 387.3 193.9 389.3 194.1 390.9 195.2 392.4 196.5 393.9 197.6 395.4 198.7 396.6 200.2 397.7 201.7 398.9 203.1 400.2 204.7 400.9 206.5 400.9 208.5Z" fill="#1C1917" stroke="#1C1917" stroke-width="2.0"/>
    <path d="M432.3 223.8 430.9 225.1 429.3 226.2 427.4 226.7 425.5 226.9 423.6 227.0 421.7 227.4 419.8 227.7 417.9 227.5 416.1 227.0 414.2 226.6 412.3 226.1 410.5 225.1 409.2 223.6 408.2 221.9 407.1 220.4 406.0 218.9 405.2 217.1 404.9 215.2 404.6 213.4 404.1 211.5 403.9 209.5 404.4 207.6 405.4 205.9 406.4 204.3 407.5 202.7 408.9 201.3 410.6 200.3 412.3 199.5 413.8 198.5 415.4 197.4 417.2 196.7 419.2 196.4 421.1 196.4 423.1 196.3 425.0 196.5 426.8 197.3 428.4 198.5 430.0 199.6 431.8 200.5 432.4 199.3 432.4 197.4 432.5 195.5 432.2 193.6 431.8 191.7 431.7 189.7 432.1 187.8 432.5 185.9 432.5 184.0 432.9 182.2 434.3 181.0 436.0 180.8 437.7 181.2 439.2 182.3 440.1 184.1 440.0 186.1 439.7 188.0 439.7 189.9 439.8 191.8 439.6 193.8 439.2 195.7 439.0 197.6 439.2 199.5 439.6 201.4 439.8 203.4 439.7 205.3 439.7 207.2 440.0 209.1 440.1 211.0 439.7 213.0 439.2 214.9 439.1 216.8 439.3 218.7 439.5 220.6 439.4 222.6 439.4 224.5 439.7 226.4 440.1 228.4 439.4 230.4 437.5 231.5 435.6 231.5 433.9 230.8 432.7 229.4 432.6 227.5 432.8 225.6ZM431.1 211.3 430.3 209.4 429.1 207.8 427.8 206.4 426.2 205.2 424.4 204.7 422.5 204.5 420.7 204.2 418.7 203.9 416.7 204.2 415.0 205.3 413.6 206.7 412.3 208.2 411.5 210.0 411.6 212.0 412.2 213.8 412.8 215.5 413.5 217.3 414.8 218.7 416.6 219.7 418.4 220.3 420.3 220.9 422.3 220.9 424.2 220.1 425.8 218.9 427.3 217.9 428.8 216.7 429.8 215.1 430.2 213.3Z" fill="#1C1917" stroke="#1C1917" stroke-width="2.0"/>
  </g>
  <g id="tagline" stroke="#1C1917" stroke-width="2" stroke-linejoin="round">
    <path d="M195.7 276.5 195.1 277.5 194.4 278.5 193.6 279.5 192.8 280.3 191.8 281.1 190.7 281.7 189.5 282.1 188.3 282.1 187.1 281.9 185.9 281.5 184.9 281.1 183.8 280.7 182.7 280.3 181.5 279.8 180.5 279.0 179.7 278.1 179.1 277.0 178.7 275.8 178.4 274.6 178.2 273.4 178.0 272.2 178.0 271.0 178.1 269.8 178.4 268.7 178.7 267.5 179.1 266.4 179.5 265.3 179.9 264.1 180.5 263.0 181.2 262.0 182.2 261.2 183.4 260.7 184.7 260.5 185.9 260.4 187.0 260.3 188.2 260.3 189.4 260.4 190.6 260.6 191.7 261.1 192.7 261.7 193.6 262.5 194.5 263.4 195.3 264.3 196.0 265.4 196.0 266.8 195.1 267.8 193.8 267.9 192.9 267.2 192.4 266.2 191.7 265.1 190.7 264.4 189.4 264.0 188.2 263.9 187.1 264.0 186.0 264.2 184.9 264.6 183.9 265.2 183.1 266.1 182.4 267.1 181.9 268.2 181.6 269.4 181.4 270.6 181.4 271.9 181.5 273.1 181.9 274.3 182.6 275.3 183.5 276.2 184.4 276.9 185.4 277.4 186.4 277.9 187.5 278.3 188.7 278.4 190.0 278.1 191.1 277.4 191.9 276.4 192.4 275.2 192.6 274.0 192.5 272.9 191.6 272.7 190.4 272.7 189.2 272.7 187.9 272.8 187.0 272.2 187.0 270.9 187.1 269.6 188.2 269.5 189.4 269.7 190.6 269.9 191.8 269.9 193.1 269.6 194.1 268.9 195.4 269.1 196.2 270.3 196.1 271.6 196.0 272.8 195.8 274.1 195.7 275.3Z" fill="#1C1917" stroke="#1C1917" stroke-width="2.0"/>
    <path d="M216.1 274.1 215.8 275.3 215.4 276.4 214.9 277.5 214.3 278.6 213.5 279.5 212.5 280.2 211.5 280.7 210.3 281.0 209.2 281.4 208.1 281.7 206.9 281.9 205.6 282.0 204.3 281.8 203.2 281.3 202.2 280.5 201.4 279.6 200.7 278.5 200.1 277.5 199.6 276.4 199.3 275.3 199.2 274.1 199.3 272.9 199.7 271.8 200.2 270.7 200.8 269.7 201.4 268.7 202.2 267.7 203.2 266.9 204.3 266.3 205.6 266.1 206.9 266.2 208.1 266.4 209.2 266.7 210.4 267.0 211.5 267.4 212.5 268.0 213.5 268.8 214.2 269.7 214.8 270.7 215.3 271.7 215.8 272.9ZM212.4 274.1 212.3 272.8 211.7 271.7 210.7 270.9 209.5 270.4 208.3 270.3 207.2 270.4 206.1 270.6 205.0 270.9 203.9 271.4 203.0 272.3 202.6 273.4 202.6 274.7 203.0 275.9 203.8 276.9 204.7 277.7 205.9 278.3 207.2 278.6 208.4 278.4 209.6 277.9 210.5 277.0 211.1 276.1 211.6 275.1Z" fill="#1C1917" stroke="#1C1917" stroke-width="2.0"/>
    <path d="M227.2 259.8 227.7 258.8 228.6 258.3 229.8 258.6 230.7 258.7 231.9 258.5 233.0 258.5 234.3 258.4 235.5 258.4 236.7 258.5 237.9 258.9 239.0 259.6 240.0 260.4 240.8 261.4 241.5 262.3 242.1 263.3 242.7 264.3 243.0 265.5 243.0 266.6 242.7 267.8 242.3 268.9 241.7 269.9 241.0 270.9 240.2 271.8 239.2 272.7 238.2 273.3 236.9 273.7 235.7 273.8 234.4 273.8 233.2 273.8 232.1 273.8 230.8 273.7 230.5 274.7 230.5 276.0 230.5 277.2 230.5 278.4 230.5 279.6 230.6 280.8 230.9 282.1 230.5 283.4 229.3 284.2 227.9 284.0 227.1 282.9 227.1 281.6 227.3 280.4 227.4 279.2 227.3 278.0 227.2 276.8 227.1 275.5 227.1 274.3 227.1 273.1 227.1 271.9 227.0 270.7 226.8 269.5 226.6 268.3 226.5 267.0 226.6 265.8 226.9 264.6 227.2 263.4 227.4 262.2 227.4 261.0ZM230.7 270.8 231.8 270.6 233.1 270.8 234.4 270.7 235.6 270.3 236.7 269.6 237.6 268.8 238.4 267.8 238.9 266.9 239.1 265.9 238.9 264.8 238.2 263.8 237.2 262.9 236.1 262.4 234.9 262.1 233.6 261.8 232.4 261.7 231.1 261.6 230.5 262.1 230.6 263.4 230.8 264.6 231.0 265.9 231.1 267.1 231.0 268.4 230.8 269.6Z" fill="#5AA6BC" stroke="#1C1917" stroke-width="2.0"/>
    <path d="M264.7 273.2 264.5 274.4 264.5 275.6 264.7 276.8 265.0 278.0 265.2 279.2 265.3 280.4 265.3 281.7 264.9 282.9 264.0 283.7 262.7 283.9 261.6 283.2 261.2 282.1 261.3 280.8 261.6 279.6 261.8 278.4 261.8 277.2 261.6 276.0 261.4 274.8 261.1 273.6 261.0 272.5 260.6 271.4 260.0 270.4 259.2 269.6 258.1 269.1 257.0 268.8 255.8 268.7 254.7 268.6 253.4 268.6 252.2 268.9 251.1 269.7 250.4 270.8 250.1 272.0 250.1 273.2 250.2 274.4 250.1 275.6 250.1 276.8 250.1 278.0 250.2 279.2 250.4 280.4 250.3 281.7 249.9 282.9 248.9 283.5 247.9 283.4 247.1 282.9 246.7 282.0 246.5 280.8 246.4 279.6 246.3 278.4 246.4 277.2 246.4 276.0 246.3 274.8 246.1 273.6 245.9 272.4 245.9 271.2 246.1 270.0 246.4 268.8 246.7 267.6 246.7 266.4 246.7 265.2 246.5 264.0 246.4 262.8 246.5 261.6 246.5 260.4 246.7 259.2 247.4 258.3 248.7 257.9 250.0 258.6 250.4 259.9 250.3 261.2 250.0 262.4 249.8 263.6 249.7 264.8 249.8 266.1 250.6 266.3 251.7 265.7 252.8 265.4 254.0 265.2 255.1 265.0 256.3 264.8 257.6 264.7 258.8 264.8 260.0 265.2 261.0 266.0 261.9 266.9 262.7 267.8 263.4 268.8 264.0 269.8 264.5 270.9 264.7 272.0Z" fill="#5AA6BC" stroke="#1C1917" stroke-width="2.0"/>
    <path d="M270.6 275.6 271.2 276.6 272.0 277.6 273.1 278.4 274.4 278.7 275.6 278.5 276.8 278.1 278.0 278.3 278.7 279.5 278.4 280.8 277.5 281.6 276.3 282.0 275.1 282.3 273.8 282.2 272.7 281.7 271.6 281.0 270.7 280.3 269.7 279.7 268.8 279.0 268.0 278.1 267.4 277.1 267.1 275.9 266.9 274.8 266.6 273.6 266.5 272.3 266.7 271.1 267.4 270.0 268.3 269.1 269.3 268.3 270.3 267.6 271.3 267.0 272.4 266.6 273.7 266.5 274.9 266.7 276.0 266.8 277.2 266.9 278.4 267.0 279.5 267.4 280.6 268.0 281.4 268.9 282.2 269.9 282.9 270.9 283.5 272.0 283.8 273.2 283.7 274.5 283.2 275.7 282.6 276.7 282.1 277.7 281.5 278.6 280.4 278.9 279.5 278.4 279.1 277.4 279.4 276.4 279.1 275.5 277.8 275.8 276.6 276.0 275.4 276.0 274.2 275.9 273.0 275.7 271.8 275.7ZM279.6 272.6 278.7 271.5 277.6 271.0 276.6 270.7 275.5 270.3 274.3 270.1 273.0 270.1 271.9 270.7 271.0 271.6 270.7 272.6 272.0 272.7 273.3 272.8 274.5 272.8 275.7 272.6 277.0 272.3 278.2 272.1Z" fill="#5AA6BC" stroke="#1C1917" stroke-width="2.0"/>
    <path d="M285.2 265.8 285.7 264.5 287.1 264.0 288.3 264.5 289.0 265.6 289.8 265.8 290.9 265.2 292.0 265.0 293.2 265.0 294.4 265.2 295.4 265.6 296.5 266.0 297.7 266.5 298.8 267.1 299.6 268.1 300.1 269.2 300.3 270.5 300.4 271.7 300.4 272.9 299.9 273.9 298.9 274.4 297.9 274.0 297.3 273.1 297.2 271.9 296.7 270.8 295.8 269.9 294.8 269.3 293.8 269.0 292.7 268.8 291.6 269.0 290.4 269.3 289.2 269.0 289.1 270.0 289.1 271.2 289.0 272.4 288.9 273.6 288.8 274.8 288.8 276.0 289.1 277.2 289.4 278.5 289.6 279.7 289.6 280.9 289.4 282.1 288.7 283.2 287.7 283.7 286.6 283.6 285.7 282.8 285.6 281.6 285.8 280.4 285.9 279.2 285.9 278.0 285.6 276.8 285.3 275.6 285.1 274.4 285.1 273.2 285.3 272.0 285.5 270.7 285.6 269.5 285.6 268.3 285.6 267.1Z" fill="#5AA6BC" stroke="#1C1917" stroke-width="2.0"/>
    <path d="M317.6 283.4 316.5 283.4 315.3 283.5 314.1 283.7 313.0 283.2 311.7 283.1 310.7 283.2 310.3 282.6 310.0 281.4 310.4 280.2 311.6 280.3 312.0 279.6 312.0 278.4 311.9 277.2 311.8 276.0 311.9 274.8 312.2 273.6 312.5 272.4 312.5 271.1 312.4 269.9 312.3 268.7 312.3 267.5 312.3 266.3 312.4 265.1 312.3 263.8 312.0 262.6 311.7 261.9 310.6 262.0 309.9 261.0 310.1 259.7 310.2 258.4 311.4 258.4 312.6 258.4 313.8 258.2 315.0 258.7 316.2 258.9 317.2 258.8 317.5 259.4 317.7 260.6 317.5 261.6 316.2 261.6 315.8 262.3 315.9 263.6 316.1 264.8 316.2 266.0 316.2 267.2 315.9 268.4 315.6 269.6 315.5 270.9 315.6 272.1 315.7 273.3 315.6 274.5 315.5 275.7 315.4 276.9 315.5 278.2 315.8 279.4 316.1 280.2 317.3 280.1 317.9 281.0 317.8 282.3Z" fill="#1C1917" stroke="#1C1917" stroke-width="2.0"/>
    <path d="M329.3 280.1 330.5 280.0 331.5 279.3 332.8 278.8 334.1 279.4 334.5 280.9 333.6 282.1 332.4 282.5 331.2 282.8 330.1 282.9 328.9 282.8 327.7 282.5 326.6 282.4 325.6 282.0 325.0 281.1 325.0 280.0 324.9 278.8 324.6 277.6 324.4 276.4 324.2 275.1 324.2 273.9 324.4 272.7 324.6 271.5 324.7 270.3 324.8 269.1 324.7 267.8 323.6 267.7 322.4 267.6 321.9 267.2 322.0 266.0 322.0 265.1 322.7 264.9 323.9 264.7 324.5 264.1 324.3 263.0 324.3 261.7 324.8 260.5 326.0 259.8 327.3 260.0 328.2 260.9 328.4 262.1 328.4 263.3 328.3 264.5 329.4 264.8 330.6 265.0 331.4 265.0 331.3 265.9 331.6 267.1 331.1 267.7 329.9 267.9 328.8 268.0 328.6 268.6 328.5 269.7 328.4 270.9 328.5 272.2 328.6 273.4 328.6 274.6 328.5 275.8 328.3 277.0 328.0 278.2 327.9 279.7Z" fill="#1C1917" stroke="#1C1917" stroke-width="2.0"/>
  </g>
  <path id="rule" d="M176 296 H336" stroke="#5AA6BC" stroke-width="4" stroke-linecap="round" fill="none"/>
</svg>
